<?xml version="1.0" encoding="UTF-8"?>
<svg id="Layer_2" data-name="Layer 2" xmlns="http://www.w3.org/2000/svg" viewBox="0 0 1080 1350">
  <defs>
    <style>
      .cls-1 {
        fill: none;
      }

      .cls-1, .cls-2, .cls-3, .cls-4, .cls-5 {
        stroke-width: 0px;
      }

      .cls-2 {
        fill: #09a1db;
      }

      .cls-3 {
        fill: #f7e200;
      }

      .cls-4 {
        fill: #27b34b;
      }

      .cls-5 {
        fill: #050606;
      }
    </style>
  </defs>
  <path class="cls-1" d="M244.49,707.59c39.29-7.31,86.31-6.96,137.04-1.45-71.03-66.76-114.82-122.48-141.05-168.15-30.34,7.51-56.39,20.18-76.47,39.24,15.84,40.86,44.07,85.36,80.47,130.36Z"/>
  <path class="cls-5" d="M250.48,988.51c.11,12.12,6.24,23.35,15.82,30.76,20.1,15.55,41.61,29.38,64.29,41.27-33.92-54.1,115.54-17.35,115.54-17.35l.09.05c-41.34-23.89-88.2-53.94-133.48-89.47,0,0-62.62-4.82-62.27,34.75Z"/>
  <path class="cls-3" d="M919.35,874.52c1.71-3.29,3.36-6.61,4.99-9.94,0,0-70.28-30.18-169.01-64.53,57.63,35.18,116.27,64.5,164.01,74.47h.01Z"/>
  <path class="cls-3" d="M152.93,540.21c2.41,11.93,6.14,24.3,11.09,37.02,20.08-19.06,46.13-31.73,76.47-39.24-19.53-34.06-29.29-62.53-33.25-85.83-.81-4.74-1.38-9.26-1.74-13.55-2.51,1.28-4.99,2.63-7.44,4.01-17.64,9.96-31.09,25.08-38.96,42.67-7.55,16.83-10.01,35.92-6.17,54.93Z"/>
  <path class="cls-3" d="M956.55,575.92c-13.11-6.46-87.22-42.41-186.99-79.57,49.25,29.74,112.79,62.12,190.45,95.93-1.05-5.5-2.2-10.95-3.46-16.36Z"/>
  <path class="cls-4" d="M960.01,592.28c-77.66-33.81-141.2-66.19-190.45-95.93-201.45-121.59-189.11-204.99-158.62-216.56,37.49-14.23,127.73,11.97,129.95,12.62-48.05-26.26-101.62-43.73-158.5-50.22,0,0-.07,0-.19-.01-.06,0-.12-.01-.19-.01-10.26-.56-222.51-10.21-77.28,178.25,5.99,7.77,12.57,15.87,19.82,24.32,24.76,28.92,50.67,55.16,76.99,78.92,51.69,46.69,104.98,83.82,154.24,112.94,114.38,67.6,207.21,92,208.67,92.39h0c2.22-17.78,3.36-35.89,3.36-54.26,0-28.18-2.69-55.74-7.8-82.43Z"/>
  <path class="cls-5" d="M350.47,441.86c-7.02-12.34-12.51-23.9-16.68-34.69-39.09-101.04,36.39-136.28,42.06-138.77-57.64,22.22-109.34,56.33-152.12,99.37,0,0-.17.17-.47.48-3.17,3.48-21.53,25.64-17.77,70.37.36,4.3.92,8.81,1.74,13.55,3.95,23.3,13.72,51.77,33.25,85.83,26.22,45.67,70.02,101.4,141.05,168.15,17.96,16.89,37.65,34.47,59.24,52.78,62.65,53.12,115.55,94.47,160.18,126.61h.03c183.34,132.01,226.59,108.39,229.62,106.41.03-.03.04-.04.07-.06.07-.04.1-.07.1-.07,35.75-33.65,65.82-73.29,88.59-117.3-47.74-9.97-106.38-39.29-164.01-74.47h-.01c-121.63-74.25-238.64-174.65-238.64-174.65-36.95-31.5-67.36-60.42-92.22-86.96h-.01c-34.28-36.58-58.07-68.62-73.97-96.57Z"/>
  <path class="cls-3" d="M131.67,845.04h0c15.36,36.11,35.45,69.7,59.5,100,0,0-24.58-52.64,21.66-84.32-26.09-29.6-48.87-61.48-66.12-95.39-12.26,20.52-17.81,46.76-15.04,79.7Z"/>
  <path class="cls-2" d="M244.49,707.59c-36.4-45-64.64-89.5-80.47-130.36-4.94-12.73-8.68-25.09-11.09-37.02-3.84-19.01-1.38-38.1,6.17-54.93-15.34,16.47-27.3,37.63-35.13,64.18-14.61,49.47-14.9,96.59-4.81,140.95v.03c5.89,25.93,15.34,50.93,27.56,74.9,17.26,33.91,40.04,65.79,66.12,95.39,30.05,34.14,64.5,65.26,99.91,93.04,45.27,35.53,92.14,65.59,133.48,89.47,72.59,41.94,128.15,64.84,128.15,64.84,57.25-5.47,111.28-22.02,159.89-47.52-104.05-28.76-244.25-116.97-361.25-220.49-48.15-42.59-92.37-87.77-128.53-132.48Z"/>
  <path class="cls-3" d="M524.54,444.74c-7.24-8.46-13.83-16.55-19.82-24.32-58.93-10.78-117.37-16.36-170.93-13.25,4.17,10.8,9.65,22.35,16.68,34.69,15.91,27.96,39.69,59.99,73.97,96.57h.01c109.99,17.84,231.48,58.78,331.32,98.16-49.27-29.12-102.55-66.25-154.24-112.94-26.32-23.76-52.23-50-76.99-78.92Z"/>
  <path class="cls-3" d="M381.53,706.14c-50.73-5.51-97.75-5.87-137.04,1.45,36.15,44.71,80.38,89.9,128.53,132.48,57.36,5.41,131.72,19.32,227.93,45.46-44.62-32.15-97.53-73.49-160.18-126.61-21.58-18.3-41.28-35.89-59.24-52.78Z"/>
</svg>