<?xml version="1.0" encoding="UTF-8"?>
<svg id="Layer_2" data-name="Layer 2" xmlns="http://www.w3.org/2000/svg" viewBox="0 0 1080 1350">
  <defs>
    <style>
      .cls-1 {
        fill: none;
      }

      .cls-1, .cls-2, .cls-3, .cls-4, .cls-5, .cls-6, .cls-7 {
        stroke-width: 0px;
      }

      .cls-2 {
        fill: #09a1db;
      }

      .cls-3 {
        fill: #f7e200;
      }

      .cls-4 {
        fill: #27b34b;
      }

      .cls-5 {
        fill: #231f20;
      }

      .cls-6 {
        fill: #414042;
      }

      .cls-7 {
        fill: #050606;
      }
    </style>
  </defs>
  <g>
    <path class="cls-1" d="M235.26,653.68c6.38-1.19,14.02-1.13,22.26-.23-11.54-10.84-18.65-19.89-22.91-27.31-4.93,1.22-9.16,3.28-12.42,6.37,2.57,6.64,7.16,13.86,13.07,21.17Z"/>
    <path class="cls-3" d="M236.23,699.3c.02,1.97,1.01,3.79,2.57,5,3.27,2.53,6.76,4.77,10.44,6.7-5.51-8.79,18.77-2.82,18.77-2.82h.01c-6.71-3.87-14.33-8.75-21.68-14.52,0,0-10.17-.78-10.11,5.64Z"/>
    <path class="cls-7" d="M344.87,680.79c.28-.53.55-1.07.81-1.62,0,0-11.41-4.9-27.45-10.48,9.36,5.71,18.88,10.48,26.64,12.09h0Z"/>
    <path class="cls-3" d="M220.39,626.49c.39,1.94,1,3.95,1.8,6.01,3.26-3.1,7.49-5.15,12.42-6.37-3.17-5.53-4.76-10.16-5.4-13.94-.13-.77-.22-1.5-.28-2.2-.41.21-.81.43-1.21.65-2.87,1.62-5.05,4.07-6.33,6.93-1.23,2.73-1.63,5.83-1,8.92Z"/>
    <path class="cls-3" d="M350.91,632.29c-2.13-1.05-14.17-6.89-30.37-12.92,8,4.83,18.32,10.09,30.93,15.58-.17-.89-.36-1.78-.56-2.66Z"/>
    <path class="cls-4" d="M351.47,634.95c-12.61-5.49-22.93-10.75-30.93-15.58-32.72-19.75-30.71-33.29-25.76-35.17,6.09-2.31,20.74,1.94,21.1,2.05-7.8-4.27-16.5-7.1-25.74-8.16,0,0-.01,0-.03,0,0,0-.02,0-.03,0-1.67-.09-36.14-1.66-12.55,28.95.97,1.26,2.04,2.58,3.22,3.95,4.02,4.7,8.23,8.96,12.5,12.82,8.39,7.58,17.05,13.61,25.05,18.34,18.58,10.98,33.65,14.94,33.89,15h0c.36-2.89.55-5.83.55-8.81,0-4.58-.44-9.05-1.27-13.39Z"/>
    <path class="cls-6" d="M252.47,610.52c-1.14-2-2.03-3.88-2.71-5.63-6.35-16.41,5.91-22.13,6.83-22.54-9.36,3.61-17.76,9.15-24.71,16.14,0,0-.03.03-.08.08-.51.57-3.5,4.17-2.89,11.43.06.7.15,1.43.28,2.2.64,3.78,2.23,8.41,5.4,13.94,4.26,7.42,11.37,16.47,22.91,27.31,2.92,2.74,6.12,5.6,9.62,8.57,10.18,8.63,18.77,15.34,26.01,20.56h0c29.78,21.44,36.8,17.6,37.29,17.28,0,0,0,0,.01,0,.01,0,.02-.01.02-.01,5.81-5.46,10.69-11.9,14.39-19.05-7.75-1.62-17.28-6.38-26.64-12.09h0c-19.75-12.06-38.76-28.37-38.76-28.37-6-5.12-10.94-9.81-14.98-14.12h0c-5.57-5.94-9.43-11.14-12.01-15.68Z"/>
    <path class="cls-7" d="M216.94,676h0c2.49,5.87,5.76,11.32,9.66,16.24,0,0-3.99-8.55,3.52-13.69-4.24-4.81-7.94-9.99-10.74-15.49-1.99,3.33-2.89,7.59-2.44,12.94Z"/>
    <path class="cls-2" d="M235.26,653.68c-5.91-7.31-10.5-14.54-13.07-21.17-.8-2.07-1.41-4.08-1.8-6.01-.62-3.09-.22-6.19,1-8.92-2.49,2.68-4.43,6.11-5.71,10.42-2.37,8.03-2.42,15.69-.78,22.89h0c.96,4.22,2.49,8.28,4.48,12.17,2.8,5.51,6.5,10.69,10.74,15.49,4.88,5.55,10.48,10.6,16.23,15.11,7.35,5.77,14.96,10.65,21.68,14.53,11.79,6.81,20.81,10.53,20.81,10.53,9.3-.89,18.07-3.58,25.97-7.72-16.9-4.67-39.67-19-58.67-35.81-7.82-6.92-15-14.26-20.87-21.52Z"/>
    <path class="cls-3" d="M280.74,610.99c-1.18-1.37-2.25-2.69-3.22-3.95-9.57-1.75-19.06-2.66-27.76-2.15.68,1.75,1.57,3.63,2.71,5.63,2.58,4.54,6.45,9.74,12.01,15.68h0c17.86,2.9,37.59,9.55,53.81,15.94-8-4.73-16.66-10.76-25.05-18.34-4.27-3.86-8.48-8.12-12.5-12.82Z"/>
    <path class="cls-7" d="M257.52,653.44c-8.24-.89-15.88-.95-22.26.23,5.87,7.26,13.05,14.6,20.87,21.52,9.32.88,21.39,3.14,37.02,7.38-7.25-5.22-15.84-11.94-26.01-20.56-3.51-2.97-6.7-5.83-9.62-8.57Z"/>
  </g>
  <g>
    <path class="cls-5" d="M477.74,626.16v7.76c-1.83-2.49-4.27-4.55-7.32-6.19-3.04-1.64-6.6-2.46-10.66-2.46-4.65,0-8.86,1.15-12.62,3.44-3.77,2.29-6.75,5.57-8.94,9.82-2.2,4.26-3.29,9.14-3.29,14.64s1.09,10.5,3.29,14.79c2.19,4.29,5.17,7.61,8.94,9.97,3.76,2.36,7.94,3.54,12.53,3.54,4.06,0,7.64-.84,10.75-2.51,3.11-1.67,5.55-3.78,7.32-6.34v7.96h13.85v-54.42h-13.85ZM477.32,657.68c-.32,1.57-.83,2.99-1.54,4.28-1.31,2.4-3.08,4.23-5.31,5.51-.28.16-.56.31-.84.45-.71.34-1.44.63-2.18.85h-.01c-1.33.41-2.71.61-4.14.61-2.49,0-4.83-.65-7.02-1.96-2.2-1.31-3.97-3.2-5.31-5.65-1.34-2.46-2.01-5.32-2.01-8.6s.67-6.1,2.01-8.5c1.34-2.39,3.1-4.2,5.26-5.45,2.16-1.24,4.52-1.87,7.07-1.87s4.94.64,7.17,1.92c2.23,1.28,4,3.11,5.31,5.5,1.31,2.39,1.96,5.26,1.96,8.6,0,1.54-.14,2.98-.42,4.31Z"/>
    <path class="cls-5" d="M550.93,631.51c-3.99-4.09-9.23-6.14-15.72-6.14-3.4,0-6.53.67-9.38,2.01-2.85,1.35-5.19,3.2-7.02,5.55v-6.77h-13.76v54.42h13.76v-30.06c0-4.32,1.09-7.65,3.29-9.97,2.19-2.33,5.19-3.49,8.99-3.49s6.68,1.16,8.84,3.49c2.16,2.32,3.24,5.65,3.24,9.97v30.06h13.75v-31.93c0-7.33-1.99-13.05-5.99-17.14Z"/>
    <path class="cls-5" d="M609.29,673.36v7.61c0,4.85-1.25,8.47-3.74,10.86-2.49,2.39-5.73,3.59-9.72,3.59-3.41,0-6.31-.74-8.7-2.21-2.39-1.48-3.94-3.46-4.66-5.95h-13.66c.65,6.22,3.45,11.14,8.4,14.74,4.95,3.6,11.28,5.4,19.01,5.4,5.76,0,10.67-1.16,14.74-3.49,4.06-2.32,7.1-5.47,9.13-9.43,2.03-3.96,3.05-8.46,3.05-13.51v-14.31c-4.87,2.22-9.5,4.48-13.85,6.7ZM609.29,626.16v7.76c-1.77-2.56-4.2-4.64-7.27-6.24-3.08-1.61-6.65-2.41-10.71-2.41-4.65,0-8.86,1.15-12.63,3.44-3.76,2.29-6.74,5.57-8.94,9.82-2.19,4.26-3.29,9.14-3.29,14.64s1.1,10.5,3.29,14.79c2.2,4.29,5.19,7.61,8.99,9.97s7.99,3.54,12.58,3.54c3.99,0,7.55-.86,10.66-2.56,2.53-1.38,4.62-3.05,6.25-5,.19-.21.36-.42.52-.64,0,0,.01,0,.01,0,.19-.24.37-.48.54-.73v.19c2.85-2.82,9.56-9.71,13.85-16.03v-30.53h-13.85ZM607.32,661.96c-1.31,2.4-3.08,4.23-5.3,5.51-2.23,1.27-4.62,1.91-7.18,1.91s-4.83-.65-7.02-1.96c-2.19-1.31-3.96-3.2-5.3-5.65-1.35-2.46-2.02-5.32-2.02-8.6s.67-6.1,2.02-8.5c1.34-2.39,3.09-4.2,5.25-5.45,2.16-1.24,4.52-1.87,7.07-1.87s4.95.64,7.18,1.92c2.22,1.28,3.99,3.11,5.3,5.5,1.31,2.39,1.97,5.26,1.97,8.6s-.66,6.2-1.97,8.59Z"/>
    <path class="cls-5" d="M650.35,608.36v72.22h-13.75v-66.7c4.3-1.95,8.93-3.84,13.75-5.52Z"/>
    <path class="cls-5" d="M712.78,638.63c-2.45-4.25-5.81-7.55-10.07-9.87-4.25-2.33-9-3.49-14.24-3.49s-9.99,1.16-14.25,3.49c-4.25,2.32-7.61,5.62-10.07,9.87-2.45,4.26-3.68,9.17-3.68,14.74s1.19,10.48,3.59,14.73c2.39,4.26,5.68,7.55,9.87,9.88,4.19,2.32,8.91,3.49,14.15,3.49s10.1-1.17,14.39-3.49c4.29-2.33,7.69-5.62,10.22-9.88,2.52-4.25,3.78-9.16,3.78-14.73s-1.23-10.48-3.69-14.74ZM700.36,662.21c-1.31,2.42-3.07,4.24-5.26,5.45-2.19,1.22-4.54,1.82-7.02,1.82-3.93,0-7.19-1.39-9.78-4.18-2.59-2.78-3.88-6.76-3.88-11.93s1.33-9.15,3.98-11.94c2.65-2.78,5.94-4.17,9.87-4.17s7.26,1.39,9.97,4.17c2.72,2.79,4.08,6.77,4.08,11.94,0,3.47-.65,6.42-1.96,8.84Z"/>
    <path class="cls-5" d="M779.88,638.48c-2.19-4.22-5.17-7.48-8.94-9.77-3.77-2.29-7.97-3.44-12.62-3.44-4,0-7.55.82-10.66,2.46-3.11,1.64-5.55,3.76-7.32,6.38v-23.97c-4.7,2.13-9.29,4.28-13.76,6.43v64.01h13.76v-7.76c1.83,2.55,4.27,4.63,7.32,6.24,3.04,1.6,6.6,2.41,10.66,2.41,4.65,0,8.85-1.18,12.62-3.54s6.75-5.68,8.94-9.97c2.2-4.29,3.29-9.22,3.29-14.79s-1.09-10.46-3.29-14.69ZM767.11,661.82c-1.34,2.42-3.11,4.29-5.3,5.6-2.2,1.31-4.57,1.96-7.13,1.96s-4.83-.64-7.02-1.91c-2.2-1.28-3.96-3.13-5.31-5.55-1.34-2.43-2.01-5.28-2.01-8.55s.67-6.12,2.01-8.55c1.35-2.42,3.11-4.27,5.31-5.55,2.19-1.28,4.53-1.92,7.02-1.92s4.93.63,7.13,1.87c2.19,1.25,3.96,3.06,5.3,5.45,1.34,2.4,2.01,5.23,2.01,8.5s-.67,6.23-2.01,8.65Z"/>
    <path class="cls-5" d="M832.49,626.16v7.76c-1.83-2.49-4.27-4.55-7.32-6.19-3.04-1.64-6.6-2.46-10.66-2.46-4.65,0-8.86,1.15-12.62,3.44-3.77,2.29-6.75,5.57-8.94,9.82-2.2,4.26-3.29,9.14-3.29,14.64s1.09,10.5,3.29,14.79c2.19,4.29,5.17,7.61,8.94,9.97,3.76,2.36,7.94,3.54,12.52,3.54,4.06,0,7.65-.84,10.76-2.51,3.11-1.67,5.55-3.78,7.32-6.34v7.96h13.85v-54.42h-13.85ZM831.87,658.51c-.31,1.24-.76,2.39-1.34,3.45-1.32,2.4-3.08,4.23-5.31,5.51-.8.46-1.62.83-2.47,1.12-1.5.53-3.07.79-4.7.79-2.49,0-4.83-.65-7.03-1.96-2.19-1.31-3.96-3.2-5.3-5.65-1.34-2.46-2.01-5.32-2.01-8.6s.67-6.1,2.01-8.5c1.34-2.39,3.09-4.2,5.26-5.45,2.16-1.24,4.52-1.87,7.07-1.87s4.94.64,7.17,1.92c2.23,1.28,3.99,3.11,5.31,5.5,1.3,2.39,1.96,5.26,1.96,8.6,0,1.86-.21,3.57-.62,5.14Z"/>
    <path class="cls-5" d="M859.8,616.21v64.37h13.75v-70.77c-4.69,2.12-9.28,4.26-13.75,6.4Z"/>
  </g>
  <path class="cls-6" d="M438.58,626.18s-.01.05-.01.05c-.74,4.82-2.47,9.49-5.15,13.67.4-.73,3.24-6.41-3.9-10.99-.79-.51-1.69-1-2.74-1.47-1.18-.53-2.54-1.04-4.11-1.5-1.56-.47-3.32-.9-5.31-1.27-2.13-.4-4.52-.74-7.21-1.02v56.93h-13.75v-57.47h-8.54c-1.5.06-3.02.15-4.52.28-5.43.45-10.65,1.34-14.23,2.96-.62-3.95-.55-7.97.18-11.86h0v-.02c.11-.27,1.8-3.87,20.03-4h.01c4.43-.04,9.85.14,16.46.61,2.28.17,4.4.38,6.38.62.78.1,1.54.2,2.27.31,6.04.89,10.58,2.13,13.98,3.53.33.13.64.27.95.4,2.89,1.29,4.88,2.68,6.25,4.01.28.27.53.53.76.8,2.38,2.73,2.24,5.05,2.2,5.43Z"/>
  <path class="cls-3" d="M608.75,673.26c.16-.16.34-.34.54-.54v.64c-.36.19-.72.37-1.07.55-.11.05-.21.11-.31.16l.02-.02s.29-.28.81-.78c0,0,.01,0,.01,0Z"/>
  <path class="cls-3" d="M621.42,643.96c.57-.32,1.14-.64,1.72-.95v1.08c-.51-.08-1.09-.12-1.72-.13Z"/>
</svg>