<?xml version="1.0" encoding="UTF-8"?>
<svg id="Layer_2" data-name="Layer 2" xmlns="http://www.w3.org/2000/svg" viewBox="0 0 1080 1350">
  <defs>
    <style>
      .cls-1 {
        fill: none;
      }

      .cls-1, .cls-2, .cls-3, .cls-4, .cls-5, .cls-6, .cls-7 {
        stroke-width: 0px;
      }

      .cls-2 {
        fill: #09a1db;
      }

      .cls-3 {
        fill: #f7e200;
      }

      .cls-4 {
        fill: #27b34b;
      }

      .cls-5 {
        fill: #231f20;
      }

      .cls-6 {
        fill: #414042;
      }

      .cls-7 {
        fill: #050606;
      }
    </style>
  </defs>
  <g>
    <path class="cls-5" d="M396.72,838.25c-1.83-2.49-4.27-4.55-7.32-6.19-3.04-1.64-6.6-2.46-10.66-2.46-4.65,0-8.86,1.15-12.62,3.44-3.77,2.29-6.75,5.57-8.94,9.82-2.2,4.26-3.29,9.14-3.29,14.64s1.09,10.5,3.29,14.79c2.19,4.29,5.17,7.61,8.94,9.97,3.76,2.36,7.94,3.54,12.53,3.54,4.06,0,7.64-.84,10.75-2.51,3.11-1.67,5.55-3.78,7.32-6.34v7.96h13.85v-54.42h-13.85v7.76ZM396.3,862.01c-.32,1.57-.83,2.99-1.54,4.28-1.31,2.4-3.08,4.23-5.31,5.51-.28.16-.56.31-.84.45-.71.34-1.44.63-2.18.85h-.01c-1.33.41-2.71.61-4.14.61-2.49,0-4.83-.65-7.02-1.96-2.2-1.31-3.97-3.2-5.31-5.65-1.34-2.46-2.01-5.32-2.01-8.6s.67-6.1,2.01-8.5c1.34-2.39,3.1-4.2,5.26-5.45,2.16-1.24,4.52-1.87,7.07-1.87s4.94.64,7.17,1.92c2.23,1.28,4,3.11,5.31,5.5,1.31,2.39,1.96,5.26,1.96,8.6,0,1.54-.14,2.98-.42,4.31Z"/>
    <path class="cls-5" d="M454.19,829.7c-3.4,0-6.53.67-9.38,2.01-2.85,1.35-5.19,3.2-7.02,5.55v-6.77h-13.76v54.42h13.76v-30.06c0-4.32,1.09-7.65,3.29-9.97,2.19-2.33,5.19-3.49,8.99-3.49s6.68,1.16,8.84,3.49c2.16,2.32,3.24,5.65,3.24,9.97v30.06h13.75v-31.93c0-7.33-1.99-13.05-5.99-17.14-3.99-4.09-9.23-6.14-15.72-6.14Z"/>
    <path class="cls-5" d="M524.53,896.16c-2.49,2.39-5.73,3.59-9.72,3.59-3.41,0-6.31-.74-8.7-2.21-2.39-1.48-3.94-3.46-4.66-5.95h-13.66c.65,6.22,3.45,11.14,8.4,14.74,4.95,3.6,11.28,5.4,19.01,5.4,5.76,0,10.67-1.16,14.74-3.49,4.06-2.32,7.1-5.47,9.13-9.43s3.05-8.46,3.05-13.51v-14.31c-4.87,2.22-9.5,4.48-13.85,6.7v7.61c0,4.85-1.25,8.47-3.74,10.86Z"/>
    <path class="cls-5" d="M528.27,838.25c-1.77-2.56-4.2-4.64-7.27-6.24-3.08-1.61-6.65-2.41-10.71-2.41-4.65,0-8.86,1.15-12.63,3.44-3.76,2.29-6.74,5.57-8.94,9.82-2.19,4.26-3.29,9.14-3.29,14.64s1.1,10.5,3.29,14.79c2.2,4.29,5.19,7.61,8.99,9.97s7.99,3.54,12.58,3.54c3.99,0,7.55-.86,10.66-2.56,2.53-1.38,4.62-3.05,6.25-5,.35-.18.71-.36,1.07-.55v-.64c-.2.2-.38.38-.54.54.19-.24.37-.48.54-.73v.19c2.85-2.82,9.56-9.71,13.85-16.03v-30.53h-13.85v7.76ZM526.3,866.29c-1.31,2.4-3.08,4.23-5.3,5.51-2.23,1.27-4.62,1.91-7.18,1.91s-4.83-.65-7.02-1.96c-2.19-1.31-3.96-3.2-5.3-5.65-1.35-2.46-2.02-5.32-2.02-8.6s.67-6.1,2.02-8.5c1.34-2.39,3.09-4.2,5.25-5.45,2.16-1.24,4.52-1.87,7.07-1.87s4.95.64,7.18,1.92c2.22,1.28,3.99,3.11,5.3,5.5,1.31,2.39,1.97,5.26,1.97,8.6s-.66,6.2-1.97,8.59Z"/>
    <path class="cls-5" d="M555.58,884.91h13.75v-72.22c-4.82,1.68-9.45,3.57-13.75,5.52v66.7Z"/>
    <path class="cls-5" d="M621.69,833.09c-4.25-2.33-9-3.49-14.24-3.49s-9.99,1.16-14.25,3.49c-4.25,2.32-7.61,5.62-10.07,9.87-2.45,4.26-3.68,9.17-3.68,14.74s1.19,10.48,3.59,14.73c2.39,4.26,5.68,7.55,9.87,9.88,4.19,2.32,8.91,3.49,14.15,3.49s10.1-1.17,14.39-3.49c4.29-2.33,7.69-5.62,10.22-9.88,2.52-4.25,3.78-9.16,3.78-14.73s-1.23-10.48-3.69-14.74c-2.45-4.25-5.81-7.55-10.07-9.87ZM619.34,866.54c-1.31,2.42-3.07,4.24-5.26,5.45-2.19,1.22-4.54,1.82-7.02,1.82-3.93,0-7.19-1.39-9.78-4.18-2.59-2.78-3.88-6.76-3.88-11.93s1.33-9.15,3.98-11.94c2.65-2.78,5.94-4.17,9.87-4.17s7.26,1.39,9.97,4.17c2.72,2.79,4.08,6.77,4.08,11.94,0,3.47-.65,6.42-1.96,8.84Z"/>
    <path class="cls-5" d="M689.92,833.04c-3.77-2.29-7.97-3.44-12.62-3.44-4,0-7.55.82-10.66,2.46-3.11,1.64-5.55,3.76-7.32,6.38v-23.97c-4.7,2.13-9.29,4.28-13.76,6.43v64.01h13.76v-7.76c1.83,2.55,4.27,4.63,7.32,6.24,3.04,1.6,6.6,2.41,10.66,2.41,4.65,0,8.85-1.18,12.62-3.54s6.75-5.68,8.94-9.97c2.2-4.29,3.29-9.22,3.29-14.79s-1.09-10.46-3.29-14.69c-2.19-4.22-5.17-7.48-8.94-9.77ZM686.09,866.15c-1.34,2.42-3.11,4.29-5.3,5.6-2.2,1.31-4.57,1.96-7.13,1.96s-4.83-.64-7.02-1.91c-2.2-1.28-3.96-3.13-5.31-5.55-1.34-2.43-2.01-5.28-2.01-8.55s.67-6.12,2.01-8.55c1.35-2.42,3.11-4.27,5.31-5.55,2.19-1.28,4.53-1.92,7.02-1.92s4.93.63,7.13,1.87c2.19,1.25,3.96,3.06,5.3,5.45,1.34,2.4,2.01,5.23,2.01,8.5s-.67,6.23-2.01,8.65Z"/>
    <path class="cls-5" d="M751.47,838.25c-1.83-2.49-4.27-4.55-7.32-6.19-3.04-1.64-6.6-2.46-10.66-2.46-4.65,0-8.86,1.15-12.62,3.44-3.77,2.29-6.75,5.57-8.94,9.82-2.2,4.26-3.29,9.14-3.29,14.64s1.09,10.5,3.29,14.79c2.19,4.29,5.17,7.61,8.94,9.97,3.76,2.36,7.94,3.54,12.52,3.54,4.06,0,7.65-.84,10.76-2.51,3.11-1.67,5.55-3.78,7.32-6.34v7.96h13.85v-54.42h-13.85v7.76ZM750.85,862.84c-.31,1.24-.76,2.39-1.34,3.45-1.32,2.4-3.08,4.23-5.31,5.51-.8.46-1.62.83-2.47,1.12-1.5.53-3.07.79-4.7.79-2.49,0-4.83-.65-7.03-1.96-2.19-1.31-3.96-3.2-5.3-5.65-1.34-2.46-2.01-5.32-2.01-8.6s.67-6.1,2.01-8.5c1.34-2.39,3.09-4.2,5.26-5.45,2.16-1.24,4.52-1.87,7.07-1.87s4.94.64,7.17,1.92c2.23,1.28,3.99,3.11,5.31,5.5,1.3,2.39,1.96,5.26,1.96,8.6,0,1.86-.21,3.57-.62,5.14Z"/>
    <path class="cls-5" d="M778.78,820.54v64.37h13.75v-70.77c-4.69,2.12-9.28,4.26-13.75,6.4Z"/>
    <path class="cls-5" d="M357.55,830.56s0-.02.01-.05c.04-.38.18-2.7-2.2-5.43-.23-.27-.48-.53-.76-.8-1.37-1.33-3.36-2.72-6.25-4.01-.31-.13-.62-.27-.95-.4-3.4-1.4-7.94-2.64-13.98-3.53-.73-.11-1.49-.21-2.27-.31-1.98-.24-4.1-.45-6.38-.62-6.61-.47-12.03-.65-16.46-.61h-.01c-18.23.13-19.92,3.73-20.03,4l-.18,11.88c3.58-1.62,8.8-2.51,14.23-2.96,1.5-.13,3.02-.22,4.52-.28h8.54v57.47h13.75v-56.93c2.69.28,5.08.62,7.21,1.02,1.99.37,3.75.8,5.31,1.27,1.57.46,2.93.97,4.11,1.5,1.05.47,1.95.96,2.74,1.47,7.14,4.58,4.3,10.26,3.9,10.99,2.68-4.18,4.41-8.85,5.15-13.67Z"/>
  </g>
  <g>
    <path class="cls-1" d="M437.32,639.45c13.65-2.54,29.99-2.42,47.62-.5-24.68-23.2-39.9-42.56-49.01-58.43-10.54,2.61-19.59,7.01-26.57,13.63,5.5,14.2,15.31,29.66,27.96,45.3Z"/>
    <path class="cls-3" d="M439.4,737.07c.04,4.21,2.17,8.11,5.5,10.69,6.99,5.4,14.46,10.21,22.34,14.34-11.79-18.8,40.15-6.03,40.15-6.03l.03.02c-14.37-8.3-30.65-18.74-46.38-31.09,0,0-21.76-1.67-21.64,12.07Z"/>
    <path class="cls-7" d="M671.82,697.46c.59-1.14,1.17-2.3,1.73-3.46,0,0-24.42-10.49-58.72-22.42,20.02,12.22,40.4,22.41,56.99,25.88h0Z"/>
    <path class="cls-3" d="M405.5,581.29c.84,4.14,2.13,8.44,3.85,12.86,6.98-6.62,16.03-11.03,26.57-13.63-6.79-11.83-10.18-21.73-11.55-29.82-.28-1.65-.48-3.22-.6-4.71-.87.45-1.73.91-2.58,1.39-6.13,3.46-10.8,8.71-13.54,14.83-2.62,5.85-3.48,12.48-2.14,19.09Z"/>
    <path class="cls-3" d="M684.74,593.7c-4.56-2.24-30.31-14.74-64.98-27.65,17.11,10.33,39.19,21.58,66.18,33.33-.36-1.91-.77-3.8-1.2-5.69Z"/>
    <path class="cls-4" d="M685.94,599.39c-26.99-11.75-49.06-23-66.18-33.33-70-42.25-65.71-71.23-55.12-75.25,13.03-4.94,44.38,4.16,45.15,4.38-16.7-9.13-35.31-15.19-55.07-17.45,0,0-.02,0-.07,0-.02,0-.04,0-.07,0-3.57-.2-77.32-3.55-26.85,61.94,2.08,2.7,4.37,5.51,6.89,8.45,8.6,10.05,17.61,19.17,26.75,27.42,17.96,16.22,36.48,29.13,53.59,39.24,39.74,23.49,72,31.97,72.51,32.1h0c.77-6.18,1.17-12.47,1.17-18.86,0-9.79-.93-19.37-2.71-28.64Z"/>
    <path class="cls-6" d="M474.14,547.12c-2.44-4.29-4.35-8.3-5.8-12.06-13.58-35.11,12.64-47.35,14.62-48.22-20.03,7.72-37.99,19.57-52.86,34.53,0,0-.06.06-.16.17-1.1,1.21-7.48,8.91-6.17,24.45.12,1.49.32,3.06.6,4.71,1.37,8.1,4.77,17.99,11.55,29.82,9.11,15.87,24.33,35.23,49.01,58.43,6.24,5.87,13.08,11.98,20.58,18.34,21.77,18.46,40.15,32.82,55.66,43.99h0c63.71,45.87,78.73,37.66,79.79,36.97,0,0,.01-.01.02-.02.02-.01.03-.02.03-.02,12.42-11.69,22.87-25.46,30.78-40.76-16.59-3.46-36.96-13.65-56.99-25.88h0c-42.26-25.8-82.92-60.69-82.92-60.69-12.84-10.94-23.41-20.99-32.04-30.22h0c-11.91-12.71-20.18-23.84-25.7-33.56Z"/>
    <path class="cls-7" d="M398.12,687.21h0c5.34,12.55,12.32,24.22,20.67,34.75,0,0-8.54-18.29,7.53-29.3-9.06-10.28-16.98-21.36-22.98-33.15-4.26,7.13-6.19,16.25-5.23,27.69Z"/>
    <path class="cls-2" d="M437.32,639.45c-12.65-15.63-22.46-31.1-27.96-45.3-1.72-4.42-3.01-8.72-3.85-12.86-1.34-6.6-.48-13.24,2.14-19.09-5.33,5.72-9.49,13.07-12.21,22.3-5.08,17.19-5.18,33.56-1.67,48.98h0c2.05,9.02,5.33,17.71,9.58,26.03,6,11.78,13.91,22.86,22.98,33.15,10.44,11.86,22.41,22.67,34.72,32.33,15.73,12.35,32.01,22.79,46.38,31.09,25.22,14.57,44.53,22.53,44.53,22.53,19.89-1.9,38.67-7.65,55.56-16.51-36.16-9.99-84.87-40.64-125.52-76.61-16.73-14.8-32.1-30.5-44.66-46.03Z"/>
    <path class="cls-3" d="M534.63,548.12c-2.52-2.94-4.8-5.75-6.89-8.45-20.48-3.75-40.78-5.69-59.39-4.6,1.45,3.75,3.35,7.77,5.8,12.06,5.53,9.71,13.79,20.85,25.7,33.56h0c38.22,6.2,80.43,20.43,115.12,34.11-17.12-10.12-35.63-23.02-53.59-39.24-9.15-8.26-18.15-17.37-26.75-27.42Z"/>
    <path class="cls-7" d="M484.93,638.95c-17.63-1.91-33.96-2.04-47.62.5,12.56,15.53,27.93,31.24,44.66,46.03,19.93,1.88,45.77,6.71,79.2,15.8-15.51-11.17-33.89-25.54-55.66-43.99-7.5-6.36-14.34-12.47-20.58-18.34Z"/>
  </g>
</svg>