<?xml version="1.0" encoding="utf-8"?>
<!-- Generator: Adobe Illustrator 24.2.0, SVG Export Plug-In . SVG Version: 6.00 Build 0)  -->
<svg version="1.1" id="Layer_1" xmlns="http://www.w3.org/2000/svg" xmlns:xlink="http://www.w3.org/1999/xlink" x="0px" y="0px"
	 viewBox="0 0 368 117" style="enable-background:new 0 0 368 117;" xml:space="preserve">
<style type="text/css">
	.st0{fill:none;}
	.st1{fill:#F7E200;}
	.st2{fill:#050606;}
	.st3{fill:#27B34B;}
	.st4{fill:#414042;}
	.st5{fill:#09A1DB;}
</style>
<g>
	<g>
		<path class="st0" d="M21.5,62c4.8-0.9,10.6-0.9,16.8-0.2c-8.7-8.2-14.1-15-17.3-20.6c-3.7,0.9-6.9,2.5-9.4,4.8
			C13.5,51,17,56.4,21.5,62L21.5,62z"/>
		<path class="st1" d="M22.2,96.4c0,1.5,0.8,2.9,1.9,3.8c2.5,1.9,5.1,3.6,7.9,5.1c-4.2-6.6,14.2-2.1,14.2-2.1h0
			c-5.1-2.9-10.8-6.6-16.4-11C29.8,92.2,22.1,91.6,22.2,96.4L22.2,96.4z"/>
		<path class="st2" d="M104.3,82.4c0.2-0.4,0.4-0.8,0.6-1.2c0,0-8.6-3.7-20.7-7.9C91.2,77.6,98.4,81.2,104.3,82.4L104.3,82.4
			L104.3,82.4z"/>
		<path class="st1" d="M10.2,41.4c0.3,1.5,0.8,3,1.4,4.5c2.5-2.3,5.7-3.9,9.4-4.8c-2.4-4.2-3.6-7.7-4.1-10.5
			c-0.1-0.6-0.2-1.1-0.2-1.7c-0.3,0.2-0.6,0.3-0.9,0.5c-2.2,1.2-3.8,3.1-4.8,5.2C10.1,36.7,9.8,39.1,10.2,41.4z"/>
		<path class="st1" d="M108.8,45.8c-1.6-0.8-10.7-5.2-22.9-9.8c6,3.6,13.8,7.6,23.4,11.8C109.1,47.1,109,46.5,108.8,45.8L108.8,45.8
			z"/>
		<path class="st3" d="M109.2,47.8c-9.5-4.1-17.3-8.1-23.4-11.8C61.2,21.1,62.7,10.9,66.4,9.5C71,7.7,82.1,10.9,82.4,11
			c-5.9-3.2-12.5-5.4-19.4-6.2c0,0,0,0,0,0c0,0,0,0,0,0c-1.3-0.1-27.3-1.3-9.5,21.9c0.7,1,1.5,1.9,2.4,3c3,3.6,6.2,6.8,9.4,9.7
			c6.3,5.7,12.9,10.3,18.9,13.9c14,8.3,25.4,11.3,25.6,11.3l0,0c0.3-2.2,0.4-4.4,0.4-6.7C110.2,54.5,109.9,51.1,109.2,47.8
			L109.2,47.8z"/>
		<path class="st4" d="M34.5,29.4c-0.9-1.5-1.5-2.9-2-4.3c-4.8-12.4,4.5-16.7,5.2-17c-7.1,2.7-13.4,6.9-18.7,12.2c0,0,0,0-0.1,0.1
			c-0.4,0.4-2.6,3.1-2.2,8.6c0,0.5,0.1,1.1,0.2,1.7c0.5,2.9,1.7,6.4,4.1,10.5c3.2,5.6,8.6,12.4,17.3,20.6c2.2,2.1,4.6,4.2,7.3,6.5
			c7.7,6.5,14.2,11.6,19.6,15.5l0,0C87.7,100,93,97.1,93.3,96.8c0,0,0,0,0,0s0,0,0,0c4.4-4.1,8.1-9,10.9-14.4
			c-5.9-1.2-13.1-4.8-20.1-9.1l0,0c-14.9-9.1-29.3-21.4-29.3-21.4c-4.5-3.9-8.3-7.4-11.3-10.7l0,0C39.3,36.7,36.4,32.8,34.5,29.4
			L34.5,29.4z"/>
		<path class="st2" d="M7.6,78.8L7.6,78.8c1.9,4.4,4.4,8.6,7.3,12.3c0,0-3-6.5,2.7-10.3c-3.2-3.6-6-7.5-8.1-11.7
			C8,71.6,7.3,74.8,7.6,78.8z"/>
		<path class="st5" d="M21.5,62c-4.5-5.5-7.9-11-9.9-16c-0.6-1.6-1.1-3.1-1.4-4.5c-0.5-2.3-0.2-4.7,0.8-6.7c-1.9,2-3.3,4.6-4.3,7.9
			c-1.8,6.1-1.8,11.9-0.6,17.3l0,0C6.8,63,8,66.1,9.5,69c2.1,4.2,4.9,8.1,8.1,11.7c3.7,4.2,7.9,8,12.3,11.4c5.6,4.4,11.3,8,16.4,11
			c8.9,5.1,15.7,8,15.7,8c7-0.7,13.6-2.7,19.6-5.8c-12.8-3.5-30-14.4-44.3-27.1C31.3,73,25.9,67.4,21.5,62L21.5,62z"/>
		<path class="st1" d="M55.8,29.7c-0.9-1-1.7-2-2.4-3c-7.2-1.3-14.4-2-21-1.6c0.5,1.3,1.2,2.7,2,4.3c1.9,3.4,4.9,7.4,9.1,11.8l0,0
			c13.5,2.2,28.4,7.2,40.6,12c-6-3.6-12.6-8.1-18.9-13.9C62,36.5,58.9,33.3,55.8,29.7L55.8,29.7z"/>
		<path class="st2" d="M38.3,61.8c-6.2-0.7-12-0.7-16.8,0.2c4.4,5.5,9.9,11,15.8,16.3c7,0.7,16.2,2.4,28,5.6
			c-5.5-3.9-12-9-19.6-15.5C42.9,66,40.5,63.8,38.3,61.8z"/>
	</g>
	<g>
		<g>
			<path class="st2" d="M173.7,52.8v3.6c-0.8-1.2-2-2.1-3.4-2.9c-1.4-0.8-3.1-1.1-4.9-1.1c-2.2,0-4.1,0.5-5.8,1.6
				c-1.7,1.1-3.1,2.6-4.1,4.6c-1,2-1.5,4.2-1.5,6.8c0,2.5,0.5,4.9,1.5,6.9c1,2,2.4,3.5,4.1,4.6c1.7,1.1,3.7,1.6,5.8,1.6
				c1.9,0,3.5-0.4,5-1.2c1.4-0.8,2.6-1.8,3.4-2.9V78h6.4V52.8L173.7,52.8L173.7,52.8z M173.5,67.4c-0.1,0.7-0.4,1.4-0.7,2
				c-0.6,1.1-1.4,2-2.5,2.6c-0.1,0.1-0.3,0.1-0.4,0.2c-0.3,0.2-0.7,0.3-1,0.4h0c-0.6,0.2-1.3,0.3-1.9,0.3c-1.2,0-2.2-0.3-3.3-0.9
				c-1-0.6-1.8-1.5-2.5-2.6c-0.6-1.1-0.9-2.5-0.9-4s0.3-2.8,0.9-3.9c0.6-1.1,1.4-1.9,2.4-2.5c1-0.6,2.1-0.9,3.3-0.9s2.3,0.3,3.3,0.9
				c1,0.6,1.9,1.4,2.5,2.5s0.9,2.4,0.9,4C173.7,66.1,173.6,66.8,173.5,67.4L173.5,67.4z"/>
			<path class="st2" d="M207.6,55.3c-1.8-1.9-4.3-2.8-7.3-2.8c-1.6,0-3,0.3-4.3,0.9c-1.3,0.6-2.4,1.5-3.3,2.6v-3.1h-6.4V78h6.4V64.1
				c0-2,0.5-3.5,1.5-4.6c1-1.1,2.4-1.6,4.2-1.6c1.8,0,3.1,0.5,4.1,1.6c1,1.1,1.5,2.6,1.5,4.6V78h6.4V63.2
				C210.4,59.8,209.4,57.2,207.6,55.3L207.6,55.3z"/>
			<path class="st2" d="M234.6,74.7v3.5c0,2.2-0.6,3.9-1.7,5c-1.2,1.1-2.7,1.7-4.5,1.7c-1.6,0-2.9-0.3-4-1c-1.1-0.7-1.8-1.6-2.2-2.8
				h-6.3c0.3,2.9,1.6,5.2,3.9,6.8c2.3,1.7,5.2,2.5,8.8,2.5c2.7,0,4.9-0.5,6.8-1.6c1.9-1.1,3.3-2.5,4.2-4.4c0.9-1.8,1.4-3.9,1.4-6.3
				v-6.6C238.8,72.6,236.6,73.6,234.6,74.7L234.6,74.7z M234.6,52.8v3.6c-0.8-1.2-1.9-2.2-3.4-2.9c-1.4-0.7-3.1-1.1-5-1.1
				c-2.2,0-4.1,0.5-5.9,1.6c-1.7,1.1-3.1,2.6-4.1,4.6c-1,2-1.5,4.2-1.5,6.8c0,2.5,0.5,4.9,1.5,6.9c1,2,2.4,3.5,4.2,4.6
				c1.8,1.1,3.7,1.6,5.8,1.6c1.8,0,3.5-0.4,4.9-1.2c1.2-0.6,2.1-1.4,2.9-2.3c0.1-0.1,0.2-0.2,0.2-0.3h0c0.1-0.1,0.2-0.2,0.3-0.3v0.1
				c1.3-1.3,4.4-4.5,6.4-7.4V52.8L234.6,52.8L234.6,52.8z M233.7,69.4c-0.6,1.1-1.4,2-2.5,2.6c-1,0.6-2.1,0.9-3.3,0.9
				c-1.2,0-2.2-0.3-3.3-0.9s-1.8-1.5-2.5-2.6c-0.6-1.1-0.9-2.5-0.9-4s0.3-2.8,0.9-3.9c0.6-1.1,1.4-1.9,2.4-2.5
				c1-0.6,2.1-0.9,3.3-0.9c1.2,0,2.3,0.3,3.3,0.9c1,0.6,1.8,1.4,2.5,2.5s0.9,2.4,0.9,4S234.3,68.3,233.7,69.4L233.7,69.4z"/>
			<path class="st2" d="M253.7,44.6V78h-6.4V47.1C249.3,46.2,251.4,45.3,253.7,44.6L253.7,44.6z"/>
			<path class="st2" d="M282.6,58.6c-1.1-2-2.7-3.5-4.7-4.6c-2-1.1-4.2-1.6-6.6-1.6c-2.4,0-4.6,0.5-6.6,1.6c-2,1.1-3.5,2.6-4.7,4.6
				c-1.1,2-1.7,4.2-1.7,6.8c0,2.6,0.6,4.9,1.7,6.8c1.1,2,2.6,3.5,4.6,4.6c1.9,1.1,4.1,1.6,6.6,1.6s4.7-0.5,6.7-1.6
				c2-1.1,3.6-2.6,4.7-4.6c1.2-2,1.8-4.2,1.8-6.8C284.3,62.8,283.7,60.6,282.6,58.6L282.6,58.6z M276.8,69.5c-0.6,1.1-1.4,2-2.4,2.5
				c-1,0.6-2.1,0.8-3.3,0.8c-1.8,0-3.3-0.6-4.5-1.9c-1.2-1.3-1.8-3.1-1.8-5.5c0-2.4,0.6-4.2,1.8-5.5c1.2-1.3,2.8-1.9,4.6-1.9
				c1.8,0,3.4,0.6,4.6,1.9c1.3,1.3,1.9,3.1,1.9,5.5C277.7,67,277.4,68.4,276.8,69.5L276.8,69.5z"/>
			<path class="st2" d="M313.7,58.5c-1-2-2.4-3.5-4.1-4.5c-1.7-1.1-3.7-1.6-5.8-1.6c-1.9,0-3.5,0.4-4.9,1.1c-1.4,0.8-2.6,1.7-3.4,3
				V45.4c-2.2,1-4.3,2-6.4,3V78h6.4v-3.6c0.8,1.2,2,2.1,3.4,2.9c1.4,0.7,3.1,1.1,4.9,1.1c2.2,0,4.1-0.5,5.8-1.6
				c1.7-1.1,3.1-2.6,4.1-4.6c1-2,1.5-4.3,1.5-6.9C315.2,62.7,314.7,60.5,313.7,58.5L313.7,58.5z M307.8,69.3c-0.6,1.1-1.4,2-2.5,2.6
				c-1,0.6-2.1,0.9-3.3,0.9s-2.2-0.3-3.3-0.9c-1-0.6-1.8-1.5-2.5-2.6c-0.6-1.1-0.9-2.4-0.9-4c0-1.5,0.3-2.8,0.9-4
				c0.6-1.1,1.4-2,2.5-2.6c1-0.6,2.1-0.9,3.3-0.9s2.3,0.3,3.3,0.9c1,0.6,1.8,1.4,2.5,2.5c0.6,1.1,0.9,2.4,0.9,3.9
				C308.7,66.8,308.4,68.2,307.8,69.3L307.8,69.3z"/>
			<path class="st2" d="M338.1,52.8v3.6c-0.8-1.2-2-2.1-3.4-2.9c-1.4-0.8-3.1-1.1-4.9-1.1c-2.2,0-4.1,0.5-5.8,1.6
				c-1.7,1.1-3.1,2.6-4.1,4.6c-1,2-1.5,4.2-1.5,6.8c0,2.5,0.5,4.9,1.5,6.9c1,2,2.4,3.5,4.1,4.6c1.7,1.1,3.7,1.6,5.8,1.6
				c1.9,0,3.5-0.4,5-1.2c1.4-0.8,2.6-1.8,3.4-2.9V78h6.4V52.8L338.1,52.8L338.1,52.8z M337.8,67.8c-0.1,0.6-0.4,1.1-0.6,1.6
				c-0.6,1.1-1.4,2-2.5,2.6c-0.4,0.2-0.8,0.4-1.1,0.5c-0.7,0.2-1.4,0.4-2.2,0.4c-1.2,0-2.2-0.3-3.3-0.9c-1-0.6-1.8-1.5-2.5-2.6
				c-0.6-1.1-0.9-2.5-0.9-4s0.3-2.8,0.9-3.9c0.6-1.1,1.4-1.9,2.4-2.5c1-0.6,2.1-0.9,3.3-0.9s2.3,0.3,3.3,0.9c1,0.6,1.8,1.4,2.5,2.5
				c0.6,1.1,0.9,2.4,0.9,4C338.1,66.3,338,67.1,337.8,67.8L337.8,67.8z"/>
			<path class="st2" d="M350.7,48.2V78h6.4V45.2C354.9,46.2,352.8,47.2,350.7,48.2z"/>
		</g>
		<path class="st2" d="M155.5,52.8L155.5,52.8c-0.3,2.3-1.1,4.4-2.4,6.4c0.2-0.3,1.5-3-1.8-5.1c-0.4-0.2-0.8-0.5-1.3-0.7
			c-0.5-0.2-1.2-0.5-1.9-0.7c-0.7-0.2-1.5-0.4-2.5-0.6c-1-0.2-2.1-0.3-3.3-0.5V78H136V51.4h-4c-0.7,0-1.4,0.1-2.1,0.1
			c-2.5,0.2-4.9,0.6-6.6,1.4c-0.3-1.8-0.3-3.7,0.1-5.5l0,0v0c0.1-0.1,0.8-1.8,9.3-1.9h0c2.1,0,4.6,0.1,7.6,0.3c1.1,0.1,2,0.2,3,0.3
			c0.4,0,0.7,0.1,1.1,0.1c2.8,0.4,4.9,1,6.5,1.6c0.2,0.1,0.3,0.1,0.4,0.2c1.3,0.6,2.3,1.2,2.9,1.9c0.1,0.1,0.2,0.2,0.4,0.4
			C155.6,51.6,155.5,52.6,155.5,52.8L155.5,52.8z"/>
	</g>
</g>
<path class="st1" d="M217.6,92c0.1-0.1,0.2-0.2,0.3-0.3v0.4c-0.2,0.1-0.4,0.2-0.6,0.3c-0.1,0-0.1,0.1-0.2,0.1l0,0
	C217.2,92.5,217.3,92.3,217.6,92L217.6,92L217.6,92z"/>
<path class="st1" d="M224.7,75.7c0.3-0.2,0.6-0.4,1-0.5v0.6C225.3,75.8,225,75.7,224.7,75.7z"/>
</svg>
